<?xml version="1.0" encoding="iso-8859-1"?>
<!-- Uploaded to: SVG Repo, www.svgrepo.com, Generator: SVG Repo Mixer Tools -->
<svg height="800px" width="800px" version="1.1" id="Capa_1" xmlns="http://www.w3.org/2000/svg" xmlns:xlink="http://www.w3.org/1999/xlink" 
	 viewBox="0 0 310.543 310.543" xml:space="preserve">
<g>
	<g>
		<g>
			<path style="fill:#010002;" d="M267.563,242.452c2.747-9.29,0.223-19.271-6.608-26.113l-22.616-22.626
				c2.491-7.968,1.055-16.627-3.878-23.377c4.183-4.215,6.494-9.812,6.494-15.779c0-5.983-2.333-11.612-6.543-15.833
				c-4.221-4.221-9.85-6.549-15.833-6.549c-5.842,0-11.324,2.203-15.512,6.222l-33.184-35.539L91.131,24.117l-0.549-0.555
				L70.696,43.458L55.439,28.212L42.076,41.565l15.257,15.24l-14.31,14.321l-15.05-14.974c-0.957-1.479-5.493-9.149-0.794-13.87
				l28.974-28.941L42.794,0l-28.92,28.947C0.652,42.142,7.423,59.911,12.933,67.569l16.731,16.899l-12.14,12.14l80.58,78.051
				l34.353,34.353c-4.068,4.194-6.282,9.709-6.282,15.567c0,5.983,2.322,11.612,6.554,15.839c4.199,4.221,9.823,6.543,15.828,6.543
				c5.961,0,11.569-2.317,15.8-6.511c4.471,3.253,10.002,5.042,15.637,5.042c2.654,0,5.26-0.392,7.729-1.169l22.621,22.627
				c4.971,4.96,11.58,7.696,18.64,7.696c2.54,0,5.053-0.359,7.484-1.077l59.503,36.975l8.354-8.354L267.563,242.452z
				 M250.74,238.492l-0.435,1.039l-1.11,0.218c-3.176,0.604-6.075,2.148-8.382,4.455l-2.616,2.594
				c-2.306,2.339-3.84,5.238-4.433,8.392l-0.207,1.131l-1.071,0.43c-1.093,0.457-2.284,0.691-3.492,0.691
				c-2.442,0-4.743-0.963-6.462-2.676l-32.286-32.297l-4.558,3.742c-1.605,1.284-3.66,1.996-5.782,1.996
				c-2.464,0-4.83-0.957-6.489-2.622l-9.274-9.268l-11.689,11.689c0.049,0.196,0.147,0.674,0.413,1.61
				c0.305,1.072,0.571,1.996-0.125,2.915l-0.62,0.827l-1.066,0.027c-0.974,0-1.572-0.604-1.806-0.827
				c-1.964-1.964-2.029-5.096-0.147-7.136l12.058-12.08l-52.335-52.362l0.56-0.56l45.623-45.623l0.566,0.555l51.785,51.796
				l12.243-12.189c0.8-0.745,1.985-1.153,3.263-1.153c1.458,0,2.807,0.522,3.731,1.441c1.05,1.061,0.854,2.072,0.647,2.589
				l-0.522,1.273l-1.49,0.065c-0.49,0-0.925-0.12-1.517-0.299c-0.419-0.12-1.066-0.31-1.556-0.37l-11.803,11.634l9.252,9.252
				c3.334,3.329,3.601,8.599,0.62,12.26l-3.742,4.574l32.313,32.297C251.398,231.166,252.16,235.076,250.74,238.492z"/>
		</g>
	</g>
</g>
</svg>